<svg xmlns="http://www.w3.org/2000/svg" viewBox="0 0 300 300">

<defs>

<!-- Leaf Gradient -->
<linearGradient id="leafGrad" x1="0" y1="0" x2="1" y2="1">
<stop offset="0%" stop-color="#2b8c7c"/>
<stop offset="100%" stop-color="#0c3f38"/>
</linearGradient>

<!-- Center 3D Gradient -->
<radialGradient id="centerGrad" cx="40%" cy="30%">
<stop offset="0%" stop-color="#57ffb2"/>
<stop offset="60%" stop-color="#16a065"/>
<stop offset="100%" stop-color="#0a6b47"/>
</radialGradient>

<!-- Inner Shadow -->
<filter id="innerShadow">
<feOffset dx="0" dy="3"/>
<feGaussianBlur stdDeviation="4" result="offset-blur"/>
<feComposite operator="out" in="SourceGraphic" in2="offset-blur"/>
<feColorMatrix type="matrix"
values="0 0 0 0 0
        0 0 0 0 0
        0 0 0 0 0
        0 0 0 .6 0"/>
<feBlend in="SourceGraphic"/>
</filter>

<!-- Gloss Highlight -->
<linearGradient id="shine" x1="0" y1="0" x2="0" y2="1">
<stop offset="0%" stop-color="white" stop-opacity=".6"/>
<stop offset="100%" stop-color="white" stop-opacity="0"/>
</linearGradient>

</defs>

<!-- Leaves -->
<g fill="url(#leafGrad)" filter="url(#innerShadow)">

<ellipse cx="150" cy="35" rx="16" ry="34"/>
<ellipse cx="150" cy="265" rx="16" ry="34"/>
<ellipse cx="35" cy="150" rx="34" ry="16"/>
<ellipse cx="265" cy="150" rx="34" ry="16"/>

<ellipse cx="70" cy="70" rx="16" ry="32" transform="rotate(-45 70 70)"/>
<ellipse cx="230" cy="70" rx="16" ry="32" transform="rotate(45 230 70)"/>
<ellipse cx="70" cy="230" rx="16" ry="32" transform="rotate(45 70 230)"/>
<ellipse cx="230" cy="230" rx="16" ry="32" transform="rotate(-45 230 230)"/>

</g>

<!-- Center Circle -->
<circle cx="150" cy="150" r="65" fill="url(#centerGrad)" filter="url(#innerShadow)"/>

<!-- Gloss Layer -->
<ellipse cx="150" cy="130" rx="55" ry="30" fill="url(#shine)" opacity=".35"/>

<!-- GF Letters -->
<g fill="#083f2e">

<!-- G -->
<path d="
M140 105
C95 135 95 175 140 195
L175 195
L175 175
L155 175
C130 160 130 140 155 125
L175 125
L175 105
Z
"/>

<!-- F -->
<path d="
M165 105
L165 195
L185 195
L185 155
L210 155
L210 135
L185 135
L185 105
Z
"/>

</g>

</svg>